<?xml version="1.0" standalone="no"?>
<!DOCTYPE svg PUBLIC "-//W3C//DTD SVG 20010904//EN"
 "http://www.w3.org/TR/2001/REC-SVG-20010904/DTD/svg10.dtd">
<svg version="1.0" xmlns="http://www.w3.org/2000/svg"
 width="128.000000pt" height="128.000000pt" viewBox="0 0 128.000000 128.000000"
 preserveAspectRatio="xMidYMid meet">

<g transform="translate(0.000000,128.000000) scale(0.100000,-0.100000)"
fill="#000000" stroke="none">
<path d="M578 1115 c-35 -24 -123 -143 -113 -153 3 -3 6 -3 8 -1 1 2 19 30 40
61 46 71 105 113 144 103 43 -10 87 -49 123 -107 42 -66 39 -62 45 -56 11 10
-76 126 -113 152 -48 33 -87 33 -134 1z"/>
<path d="M560 1021 c-38 -20 -80 -61 -63 -61 6 0 17 7 24 17 20 23 89 53 124
53 35 0 104 -30 124 -53 7 -10 18 -17 24 -17 18 0 -26 41 -65 61 -47 24 -122
24 -168 0z"/>
<path d="M432 840 c0 -19 2 -27 5 -17 2 9 2 25 0 35 -3 9 -5 1 -5 -18z"/>
<path d="M852 845 c0 -16 2 -22 5 -12 2 9 2 23 0 30 -3 6 -5 -1 -5 -18z"/>
<path d="M497 648 c-20 -117 -37 -219 -37 -227 0 -10 25 -12 128 -9 174 5 210
27 228 136 5 35 3 44 -19 66 -18 18 -21 26 -11 30 25 10 45 65 42 118 -2 42
-8 54 -31 72 -24 18 -45 21 -146 24 l-117 4 -37 -214z m213 91 c19 -34 -11
-69 -60 -69 -39 0 -39 0 -34 33 10 54 12 57 48 57 25 0 38 -6 46 -21z m-10
-164 c10 -12 9 -20 -4 -40 -14 -21 -24 -25 -66 -25 -35 0 -48 4 -46 13 3 6 7
24 10 40 6 24 11 27 50 27 26 0 48 -6 56 -15z"/>
<path d="M372 644 c-39 -23 -50 -40 -109 -162 -72 -149 -86 -206 -59 -247 22
-34 70 -62 117 -70 21 -4 40 -13 43 -21 8 -21 551 -21 559 0 3 8 23 17 45 21
48 8 96 36 118 70 26 39 13 96 -50 230 -58 122 -89 166 -138 191 -52 27 -52
13 0 -16 51 -30 55 -35 117 -165 73 -150 83 -182 66 -223 -13 -31 -76 -72
-110 -72 -16 0 -21 6 -21 26 0 16 -12 37 -31 55 -18 16 -30 31 -28 33 2 2 21
11 42 20 21 8 36 20 33 25 -4 5 -2 12 4 16 5 3 10 11 10 18 0 6 -18 -7 -40
-28 -24 -23 -40 -33 -40 -25 0 15 25 152 35 198 5 21 2 22 -42 20 -44 -1 -45
-2 -10 -5 20 -2 37 -8 37 -13 0 -9 -29 -165 -51 -277 l-10 -53 -214 0 -214 0
-10 53 c-22 112 -51 268 -51 277 0 5 17 11 38 13 34 3 33 4 -11 5 -44 2 -47 1
-42 -20 10 -46 35 -183 35 -198 0 -8 -16 2 -40 25 -22 21 -40 34 -40 28 0 -7
5 -15 10 -18 6 -4 8 -11 4 -16 -3 -5 12 -17 33 -25 21 -9 40 -18 42 -20 2 -2
-10 -17 -28 -33 -19 -18 -31 -39 -31 -55 0 -20 -5 -26 -21 -26 -34 0 -97 41
-110 72 -17 41 -7 73 66 223 62 130 66 135 117 165 29 16 46 30 38 30 -8 0
-34 -12 -58 -26z m39 -422 c5 -27 3 -32 -12 -32 -10 0 -21 -4 -24 -10 -11 -18
-25 -11 -25 13 0 28 28 69 43 64 6 -2 14 -18 18 -35z m513 16 c18 -25 21 -68
7 -68 -6 0 -13 5 -16 10 -3 6 -14 10 -25 10 -14 0 -17 5 -13 23 12 56 22 61
47 25z m-16 -80 c3 -17 -15 -18 -262 -18 -215 0 -266 3 -266 13 0 8 3 17 7 20
4 4 122 6 262 5 234 -3 256 -4 259 -20z"/>
</g>
</svg>
